<svg xmlns="http://www.w3.org/2000/svg" height="800" width="1200" viewBox="-15.8559 -32.75925 137.4178 196.5555"><defs><clipPath id="a"><path d="M.015 841.89h595.261V0H.015z"/></clipPath></defs><path d="M38.234 2.171c.173-.06-.179.054 0 0m0 0c.032-.009-.032.009 0 0" fill="#151616"/><path d="M53.166 91.624h.106a50.36 50.36 0 0014.72-2.175c5.048-1.753 9.842-5.277 12.74-9.668 4.778-6.989 9.114-20.499 9.295-33.949v-.042c-.18-13.45-4.517-26.959-9.296-33.953-2.897-4.386-7.584-7.91-12.631-9.666C63.399.75 58.32 0 53.166 0c-5.16 0-10.236.75-14.932 2.171-5.053 1.756-9.733 5.28-12.627 9.666-4.782 6.994-9.12 20.503-9.307 33.953v.042c.186 13.45 4.525 26.96 9.307 33.95 2.894 4.39 7.574 7.898 12.627 9.657a51.31 51.31 0 0014.821 2.185h.111" fill="#676659"/><path d="M87.184 45.811c.165 10.131-2.923 22.43-5.898 28.975-3.297 7.481-8.331 12.029-15.729 14.049-3.978 1.025-8.16 1.545-12.455 1.545-4.29 0-8.496-.52-12.475-1.545-7.39-2.02-12.43-6.568-15.718-14.049-2.983-6.545-6.068-18.844-5.904-28.975-.164-10.131 2.921-22.429 5.904-28.97C28.197 9.355 33.236 4.81 40.627 2.787c3.98-1.02 8.184-1.542 12.475-1.542 4.295 0 8.477.521 12.455 1.542 7.398 2.022 12.432 6.568 15.73 14.054 2.974 6.541 6.062 18.839 5.897 28.97" fill="#fff"/><path d="M53.222 12.061c3.54 0 7.075.496 10.334 1.375 3.473.994 6.323 3.385 7.754 6.64 3.11 6.683 5.16 16.29 5.16 25.735 0 9.45-2.05 19.054-5.16 25.734-1.431 3.251-4.281 5.651-7.754 6.641a40.06 40.06 0 01-10.334 1.371h-.11c-3.543 0-7.076-.492-10.337-1.37-3.474-.99-6.316-3.39-7.753-6.642-3.12-6.68-5.16-16.284-5.16-25.734 0-9.445 2.04-19.052 5.16-25.735 1.437-3.255 4.28-5.646 7.753-6.64a40.073 40.073 0 0110.336-1.375h.111" fill="#676659"/><path d="M58.231 24.955c-.493-.829-.09-.09-.601-1.055M47.705 44v3.396l-11.686.009v-3.399L47.705 44M45.06 73.414c-.244-.537-.343-.724-.364-1.279 2.443 0 4.093 0 6.684.004-.016.927-.54 1.835-1.384 2.436-.926.672-2.466.83-3.492.255-.592-.285-1.122-.856-1.444-1.416" fill="#fff"/><path d="M52.275 70.699l-3.584.003V69.04h3.599l1.129-1.336c.55.64.594.687 1.164 1.336h3.592v1.662l-3.599-.003v4.13h-2.301v-4.13m.426-5.152c.733-.245 1.775-.667 1.98-1.378-.055-1.108.708-1.995 1.274-2.879.289-.381.325-.613.241-1.03 1.144.05 2.3 1.004 2.746 2.069.455 1.09.278 2.515-.427 3.423-.879 1.068-2.099 1.634-3.521 1.378-.894-.198-1.778-.744-2.293-1.583m-8.627-14.898c-.635-.317-1.498-.449-2.212-.108-.572.154-1.178.834-1.235 1.513-.036 2.02.034 2.642 0 4.865-.036.35-.216.515-.656.515-.371-.017-.65-.202-.644-.524v-4.961c-.033-.529-.118-1.04-.482-1.44l-2.573.841-.23.079c.65.485.948.5 1.004 1.298l-.002 6.35.036.342.092.217.077.205.085.159c.426.681 1.141.951 1.643 1.08.224.067.61.099.828.101.67.001 1.299-.039 1.979-.515 1.057-.831.825-2.281.856-4.386.006-.594.044-.921.416-1.261.304-.233.734-.307 1.125-.224.449.124.521.161.97.455.013-1.818.07-4.061-1.077-4.601m23.85 7.963c-1.879-1.842-5.129-4.412-5.392-5.503-.282-.732-.192-1.617-.21-2.465.548-.425.99-.797 1.644-1.309-.047 1.3-.227 2.62.399 3.392a903.39 903.39 0 004.304 4.262c.515.555.922 1.347.587 2.08a6.38 6.38 0 01-.619 1.072c0-.712-.306-1.125-.713-1.529M57.292 49.25c1.434-.02 1.894.019 3.382-.008v10.035h-3.392l.01-10.027" fill="#fff"/><path d="M64.882 50.181c.362-.395.488-.54.91-.952l.854 1.026v2.854c1.206-.587.91-2.299.91-3.78.718.587 1.079.912 1.76 1.558.385 1.71-.639 2.678-1.404 3.878l-3.03-2.896V50.18m2.757-7.671l.461-1.912 1.475-.22V35.64c-.575.087-.807.147-1.276.201v-3.594c-.774.159-1.603.439-2.426.63v5.965c-.008.286-.463.383-.56.38h-.123c-.295 0-.587-.204-.587-.404v-5.746l-2.37.304v2.422c-.838 1.702-2.077 3.248-3.28 4.8 1.282.094 1.373.094 2.647.21l.784 1.702h5.255m-26.955-1.18c-.042-1.566-.108-2.594-.144-4.141.487-.13.961.175 1.335.455-.058 1.971-.058 1.948-.101 4.017H40.69l-.006-.331m-.213-9.014c-.259-1.545-.284-1.656-.426-2.791h-.984v-1.083c1.699-.005 2.643.003 4.346.003l.003 1.08h-1.02l-.44 3.64a4.02 4.02 0 00-1.479-.849m-.176-4.652c-1.457-1.558-1.556-3.895-1.276-6.005l.002-.008c.265.78.759 1.34 1.543 1.711-.09-.416-.455-.792-.573-1.228-.34-.859-.307-2.08.25-2.825.395-.588.964-.83 1.589-1.028-.24.708-.312 1.548-.022 2.263.41-.309.43-.33.746-.638.117-.114.174-.149.275-.227.581 1.238 1.235 2.938.852 4.382l-.235.618c-.093-1.017-.26-1.504-.942-1.872-.09.592.29 1.015.376 1.787.28 1.196.06 2.378-.677 3.07h-1.908m17.936-2.709l-1.502 1.644c-.406-.389-.439-.425-.843-.85.774-.809.849-.894 1.744-1.849m2.564-2.942c.303-1.425.467-3.07 2.032-3.66.59-.17 1.394-.097 1.895.347.671.488.866 1.309.705 2.074-.47 1.654-2.316 1.962-3.814 2.354l-.818-1.115M70.569 44v3.422l-11.687-.017v-3.399L70.57 44" fill="#fff"/><path d="M42.347 66.819c-.473-2.157 2.132-2.93 2.75-4.723.484-2.997.63-6.154 2.714-8.487.204-4.402 1.629-8.295 4.758-11.494-.147-.994-.554-1.855-.852-2.779-.41-.016-.687-.095-1.057-.425-.273-.384-.383-.67-.453-1.134-1.09 1.352-2.44 2.863-3.925 3.774-.27.154-.616-.169-1.112-.63-1.824-1.44-2.13-4.695-4.908-4.554-1.26-.422-1.2-1.908-1.41-3.02.468-.342 1.23-.326 1.79-.107 1.734.927 2.892 2.881 4.528 4.189.436.348.831.806 1.234.975 1.076-.925 1.933-1.72 2.666-3.148.502-.815 1.34-1.165 2.267-1.175l.66-.777-.35-1.943a14.176 14.176 0 01-1.692-2.744c.237-1.112.382-2.41 1.51-3.025.736-.457 1.336.585 1.941-.075.441-.09.824.03 1.13.282.458.795.996 1.586 1.028 2.51-.282.898-.705 1.733-1.132 2.572-.095.185-.353.245-.528.381.105.38.196.8.458 1.1.333.072.653.13 1.053.058.326-.983 1.384-1.424 2.266-1.689l1.936-1.262c-.31-1.47.633-2.763.11-4.224-1.11-.525-1.426-1.771-1.663-2.755.176-.606.476-1.256.915-1.775l.063.076c1.06 1.229 2.03 2.498 2.368 4.025.189 1.95.379 3.95.252 5.989-1.048 1.042-2.31 1.661-3.497 2.435l-.883 1.691c-.103 1.745-.616 3.316-.885 5.006.753 2.043 1.644 4.762.99 6.65-.508 1.127-1.565 1.742-2.35 2.368l-1.986 1.586c1.994 2.194 1.511 4.683 1.596 7.863-.02.767 1.355 1.406.623 2.283-.614.98-1.568 1.777-1.409 3.065-.611 1.027-2.065 1.245-2.759 1.237a.247.247 0 01-.262-.25c.145-.528.555-.942.771-1.442.71-1.085.385-2.583 1.266-3.592-.723-2.364-1.82-4.554-2.12-7.075l-.02-.163c-.592 1.16-.265 2.297.045 3.212-1.953 2.463-4.073 4.832-4.073 8.073-.838 1.485-2.025 2.838-2.645 4.408-.205.264-.597.036-.834-.103-.559-.367-.686-.73-.883-1.238m21.452-10.634c1.878 1.842 5.128 4.415 5.391 5.504.279.737.192 1.612.205 2.468-.543.43-.991.797-1.645 1.304.047-1.297.232-2.62-.395-3.39-1.533-1.52-2.921-2.905-4.304-4.261-.512-.554-.924-1.348-.587-2.08.16-.353.38-.753.617-1.07 0 .714.314 1.121.718 1.525" fill="#fff"/><path d="M66.836 64.617c-.361.398-.487.544-.909.96l-.855-1.027v-2.861c-1.2.591-.913 2.296-.913 3.776a27.67 27.67 0 01-1.753-1.553c-.386-1.707.634-2.677 1.406-3.878l3.024 2.898v1.685m-5.056 8.797c.25-.537.341-.724.367-1.279-2.45 0-4.09 0-6.68.004.012.927.54 1.835 1.38 2.436.922.672 2.467.83 3.49.255.593-.285 1.114-.856 1.443-1.416" fill="#fff"/><path d="M54.347 87.991c-.033-1.854 1.78-2.791 2.922-4.02.311-.295.425-.885.205-1.37-.139-.306-.335-.456-.592-.52-.396-.09-.733-.031-.99.19-.352.331-.448.76-.43 1.223l-1.275.075a2.43 2.43 0 01.495-1.919c.592-.633 1.482-.806 2.35-.75.688.115 1.495.531 1.782 1.254.368.783.243 1.793-.337 2.455-.75.8-1.727 1.233-2.35 2.133l3.204-.19c.029.392.055.78.07 1.144l-5.054.295m-11.379-8.016l-.022.06-2.086 6.406-1.336-.437 1.435-4.38.021-.077c-.534-.187-1.175-.37-1.69-.55l.271-.833c.674.178 1.368.293 1.957-.195.215-.17.252-.214.368-.342l1.082.348m23.764 4.811c-.168.196-.473.35-.8.429-.332.081-.67.091-.91-.009a1.036 1.036 0 01-.645-.672c-.126-.442 0-.903.37-1.167.17-.11.402-.218.652-.29.258-.052.521-.067.707-.04.461.054.786.405.876.85.063.3-.015.64-.25.9zm-2.8-3.089c-.163-.276-.163-.746.127-1.022.161-.176.402-.299.661-.363a1.3 1.3 0 01.76.013c.376.114.59.529.582.85a.822.822 0 01-.272.594 1.459 1.459 0 01-.635.307 1.484 1.484 0 01-.7.023.844.844 0 01-.523-.402zm4.41 1.828c-.17-.63-.522-1.136-1.225-1.339l-.406-.087c.419-.295.805-.894.666-1.47-.098-.659-.575-1.078-1.175-1.304-.525-.165-1.138-.135-1.72.021-.59.133-1.137.394-1.536.783-.419.48-.647 1.068-.421 1.7.141.576.759.922 1.262.991l-.316.265c-.534.512-.6 1.119-.459 1.756.155.709.727 1.265 1.42 1.47.518.13 1.147.12 1.76-.025.615-.152 1.175-.432 1.574-.8.518-.506.764-1.256.575-1.961m-19.22 3.129c-.219.137-.556.197-.895.172-.337-.016-.66-.12-.862-.274a1.04 1.04 0 01-.41-.847c.008-.449.267-.853.701-.993a2.19 2.19 0 01.705-.08c.259.02.517.082.689.163.42.194.627.625.581 1.081a1.047 1.047 0 01-.509.778zm-1.754-3.78c-.068-.312.073-.762.43-.94.198-.118.474-.165.733-.145.266.015.531.093.721.235.331.216.413.682.306.986-.073.24-.243.385-.438.489a1.548 1.548 0 01-.697.1 1.44 1.44 0 01-.673-.188.823.823 0 01-.382-.537zm3.663 3.058c.029-.65-.155-1.24-.765-1.642l-.36-.205c.481-.153 1.026-.606 1.065-1.204.106-.662-.228-1.204-.728-1.601-.455-.31-1.042-.461-1.648-.491-.602-.048-1.208.038-1.695.29-.549.333-.944.832-.919 1.498-.031.593.455 1.112.919 1.324l-.385.161c-.667.324-.91.885-.958 1.538-.064.726.316 1.422.918 1.821.448.29 1.057.465 1.69.511.622.034 1.247-.072 1.737-.306.645-.325 1.1-.967 1.129-1.694M81.184 20.96l-6.238 2.686-.553-1.293 6.23-2.693.56 1.3M57.696 10.186L56.094 3.2l1.478.148c.295 1.73.6 3.69.95 5.148.638-1.36 1.327-3.218 1.96-4.848l1.458.145-2.951 6.525-1.293-.13M31.181 14.18l-1.513 2.711-1.28-.711 1.733-3.11-.972-.553-2.428 4.355 5.923 3.312 2.43-4.359-.983-.549-1.741 3.119-1.659-.931 1.52-2.712-1.03-.572m-4.49 31.91l-1.894.001h-.012c.032-1.506-.201-2.395.696-2.569.313-.085.698-.05.931.184.385.371.267.988.28 2.384zm-2.927.001h-1.668c.05-1.55-.202-2.385.749-2.485.564-.042.714.081.844.425.107.345.075.714.075 2.06zm3.827-3.071c-.321-.733-1.109-1.023-1.917-.983-.684.087-1.202.548-1.495 1.253-.102-.413-.49-.928-1.142-1.009-.68-.084-1.333.101-1.658.679-.449.571-.253 3.095-.298 4.55l6.738-.006.002-.492c-.04-2.68.118-3.006-.23-3.992m53.646-18.289l1.08-.279 1.367 5.305-1.085.28-.499-1.962-5.451 1.406-.348-1.374 5.443-1.405-.507-1.97m-34.26-14.158c-.76.13-1.535.053-2.157-.325-.54-.317-.734-.719-.831-1.214l-.78-4.848 1.377-.225.784 4.85c.079.397.432.642.8.717.201.047.426.046.644.006m.18 1.036c.753-.115 1.463-.43 1.942-.99.411-.464.471-.91.408-1.406l-.774-4.856-1.386.222.78 4.851c.045.367-.209.743-.534.93a1.5 1.5 0 01-.616.212m33.638 26.953l-.236-1.68 2.929.447h.007l-.005.002h.012-.014zm3.92-2.138l-7.05-1.414.193 1.374 1.536.28.334 2.427-1.391.69.183 1.38 6.398-3.294-.204-1.443m-1.02 11.657l.126-.021.155-.039.11-.045c.45-.242.557-.837.528-1.32-.013-.49-.165-.987-.623-1.172-.24-.063-.54-.083-.7.163-.77 1.134-.237 3.537-2.21 3.954-.862.149-1.617-.231-2.063-.919-.61-1.087-.66-2.797.04-3.86.421-.55.99-.89 1.676-.897l.089 1.301c-.425.058-.842.273-1.034.693-.283.678-.219 1.758.284 2.157.186.208.601.179.831.059.786-.563.626-1.966 1.021-2.909.129-.397.503-.801.87-1.005.696-.297 1.588-.19 2.148.361.903.853.942 2.524.527 3.538-.236.705-1.004 1.215-1.789 1.26l-.085-1.296.1-.003M28.735 35.771c-.117.754-.424 1.47-.981 1.946-.464.415-.906.477-1.406.417l-4.857-.762.218-1.377 4.849.751c.403.049.74-.211.928-.529.117-.18.183-.397.214-.616" fill="#676659"/><path d="M28.735 35.757c.126-.76.053-1.537-.332-2.155-.313-.538-.718-.732-1.218-.833l-4.85-.754-.22 1.374 4.856.771c.364.055.642.427.717.787.05.208.05.43.012.654m9.387-24.452l-.75-2.861-.005-.012.005.004-.002-.012.006.017 2.193 1.98zm-.825-4.393l-1.24.757 1.487 7.03 1.193-.717-.352-1.521 2.091-1.275 1.191 1.014 1.185-.724-5.555-4.564m32.934 2.209l-2.856-1.2.562-1.351 3.28 1.375.44-1.035-4.598-1.924-2.623 6.26 4.601 1.922.437-1.038-3.294-1.379.731-1.75 2.878 1.21.442-1.09M26.535 26.426l-1.706-.501c.377-1.156.543-2.325 1.356-2.259.331.057.556.145.746.383.318.39-.09 1.26-.396 2.377zm1.349-2.428c-.003-.464-.028-.85-.413-1.222-.37-.387-.964-.563-1.545-.522-1.511.229-1.71 1.962-2.551 4.711l6.5 1.938.409-1.36-2.573-.762-.101-.027c.171-.63.427-1.421.55-1.594.465-1.071 2.187-.02 2.869-.119l.397-1.348c-1.156.062-2.714-.974-3.542.305m48.438-9.287c-.237.233-.436.359-.745.371-.512.027-.97-.813-1.688-1.72l1.403-1.078c.723.981 1.565 1.806 1.03 2.427zm-1.017-4.216l-5.384 4.111.855 1.124 2.128-1.621.093-.065c.397.507.895 1.176.955 1.378.598 1.01-1.277 1.777-1.586 2.392l.85 1.113c.63-.98 2.386-1.622 1.835-3.042.38.276.709.482 1.238.384.533-.074 1.023-.448 1.335-.945.696-1.359-.585-2.54-2.319-4.829M0 113.056h105.706V97.527H0z" fill="#676659"/><path d="M0 131.037h105.706v-15.533H0z" fill="#bd1a30"/><path d="M29.364 108.969c.33.018.661-.038.948-.164.524-.191.99-.691 1-1.236l.003-7.337h2.081v7.337c-.025.753-.217 1.388-.929 1.976-.83.71-1.956 1-3.09.995h-.028c-1.139.005-2.26-.285-3.088-.995-.717-.588-.907-1.223-.94-1.976v-7.337h2.081l.007 7.337c.017.6.476 1.045 1.002 1.236.286.126.621.182.953.164m35.347-4.944l-4.619-.004v-2.171l5.3-.004.003-1.67h-7.42v10.096h7.42l-.004-1.678h-5.306l.001-2.822h4.63l-.005-1.747m27.191 4.932c.332.01.663-.045.95-.163.52-.2.99-.694 1-1.24l.003-7.34h2.086v7.34c-.032.752-.222 1.39-.939 1.972-.828.714-1.952 1.003-3.09.996h-.027c-1.133.007-2.259-.282-3.09-.996-.711-.582-.906-1.22-.938-1.972v-7.34h2.092v7.34c.016.6.481 1.04.996 1.24.292.118.621.172.957.163m-82.121-8.748c2.025.005 3.203 0 4.876 0 1.555 0 2.78.842 2.898 2.383.106 1.068-.229 1.99-1.508 2.31 1.132.315 1.862 1.35 1.868 2.69.005 1.143-.883 2.694-3.363 2.694h-4.77V100.21" fill="#fff"/><path d="M11.887 105.771c.744 0 1.67-.006 2.665.055.784.05 1.25.723 1.25 1.351s-.34 1.268-1.063 1.353c-.712.084-.784.057-2.86.084l.008-2.824m-.002-4.025h2.446c.668 0 1.258.345 1.258 1.121 0 .816-.445 1.313-1.182 1.313h-2.52l-.002-2.434" fill="#676659"/><path d="M75.506 106.411l1.253-4.217v-.019l.002.012v-.012.019l1.259 4.217zm2.343-6.215h-2.174l-3.534 10.094h2.066l.732-2.203h3.648l.732 2.203h2.06l-3.53-10.094m-30.875 4.22c-.603.055-.898.061-2.835.058v-2.603c.991.02 2.068-.047 2.662 0 .603.058 1.15.459 1.156 1.201 0 .742-.385 1.284-.983 1.344zm1.021.955c1.037-.339 2.146-.789 2.029-2.747-.105-1.697-1.659-2.323-3.22-2.398-1.732 0-2.84-.012-4.772-.026v10.09h2.104l-.009-4.118c.964-.013 1.572-.053 2.542.01 1.731.103 1.02 4.105 1.5 4.108h1.981c-.641-1.596.25-4.404-2.155-4.919M12.46 128.25l-3.423-10.1 2.21-.003c.698 2.522 1.444 5.372 2.177 7.483.737-2.111 1.488-4.961 2.177-7.48l2.181-.003-3.388 10.103H12.46M30.574 122l-4.62-.003v-2.177l5.293-.004.01-1.671H23.84v10.102h7.414l-.007-1.678h-5.3v-2.828l4.627.005V122m23.343 6.25h2.112v-10.103h-2.112zm7.977-8.378v-1.648h8.145v1.648h-3.013v8.378h-2.102l-.009-8.378h-3.021m15.557 4.5l1.263-4.225v-.018l.003.012.002-.012v.018l1.251 4.225zm2.344-6.222h-2.166l-3.542 10.1h2.07l.728-2.204h3.647l.733 2.204h2.066l-3.536-10.1m-36.48 4.2c-.6.064-.9.071-2.826.065v-2.601c.985.015 2.069-.055 2.662 0 .598.046 1.145.451 1.152 1.198.006.742-.393 1.278-.988 1.338zm1.028.956c1.033-.337 2.146-.786 2.026-2.745-.103-1.696-1.656-2.322-3.214-2.406-1.739 0-2.847-.01-4.775-.021v10.087h2.1l-.009-4.111c.964-.009 1.569-.053 2.542.002 1.728.108 1.023 4.11 1.497 4.11h1.988c-.648-1.595.25-4.395-2.155-4.916m43.796 1.785c0 1.468 1.181 3.385 4.247 3.385 2.484 0 4.24-1.144 4.24-3.399 0-3.403-6.105-2.47-6.105-4.286 0-.704.575-1.349 2.058-1.349 1.365 0 1.863.758 1.863 1.582l1.944-.072c0-.645-.331-3.157-4.035-3.157-2.667 0-3.902 1.551-3.902 3.364 0 3.403 6.072 2.146 6.072 4.291 0 1.185-1.206 1.415-2.29 1.415-1.406 0-2.161-1.043-2.161-1.845l-1.931.071" fill="#fff"/><g clip-path="url(#a)" transform="matrix(1.25 0 0 -1.25 -532.597 163.747)"><text transform="matrix(1 0 0 -1 -641.969 -23.173)"><tspan style="-inkscape-font-specification:Helvetica" y="0" x="0 4.0019999 8.0039997 12.336 14.004 17.34 20.676001 24.011999 27.348 30.684 34.02 37.355999 40.692001 44.028 48.360001 53.028 57.360001 61.362 64.697998 68.363998 70.031998 73.367996 77.370003 80.706001 84.042 88.709999 92.711998 94.379997 95.711998 99.047997 102.384 105.72 110.724 1183.2419 1186.578 1188.246 1191.582 1194.918 1196.5861 1199.922 1203.2581 1208.262 1211.598 1214.934 1216.6021 1219.938 1223.274 1224.942 1228.278" font-weight="400" font-size="6" font-family="Helvetica" fill="none" stroke="#fff" stroke-width=".4" stroke-miterlimit="10">VERI_1101664_COUV_FI_A4_GB.indd 14/02/11 15:40:22</tspan></text></g></svg>